<svg xmlns="http://www.w3.org/2000/svg" version="1.1" xmlns:xlink="http://www.w3.org/1999/xlink" xmlns:svgjs="http://svgjs.dev/svgjs" width="100%" height="100%" viewBox="0 0 1000 600"><rect width="1000" height="600" x="0" y="0" fill="#0000"/><g><circle r="166.66666666666666" cx="261.11112467447913" cy="283.33334525987345" fill="#00000" transform="matrix(1.3235295068021533,0,0,1.3235295068021533,0,-75.0000144808369)"/><path d="M189.86698718072103 356.8413964977577L186.098011525092 339.3051903222615L133.14913825191476 356.8413964977577L117.70680744065695 304.6253796020639L163.11772940257615 286.17310295471344L168.58797879164882 299.91416003252766L136.55168571880208 312.7391466384875L144.08963703006015 336.87106021133445L182.72163750025769 324.6218893305401L170.83889480820505 271.6468426153099L123.17705682972962 280.88606766001163L119.59129526847146 265.9933791318664L183.66388141416493 254.13680988186672L205.8851337171444 352.3133910225923L189.86698718072103 356.8413964977577ZM279.955974727076 356.2655807725922L277.8882728048906 275.0493900821972L240.95754606813676 271.85623015173377L234.36183867078594 336.6616726749106L271.65899359628156 340.24743423616883L269.774505768467 355.3233368586849L216.4592043065481 350.24568910040693L226.61449982310407 255.07905379577397L277.49567117409595 259.79027336531027L276.18699907144696 208.33328628915285L292.7809613330359 208.33328628915285L296.34054945224113 356.2655807725922L279.955974727076 356.2655807725922ZM390.19851265422506 358.33328269477755L359.1044634952856 308.6037427941168L328.0104143363461 358.33328269477755L313.69354153336644 348.5444153669633L343.2695310532331 304.25895141332217L315.00221363601537 264.6847070292174L328.0104143363461 254.32002397623756L359.1044634952856 298.6054879298787L390.19851265422506 254.32002397623756L403.20671335455575 264.6847070292174L374.7561818429672 304.25895141332217L404.51538545720473 348.5444153669633L390.19851265422506 358.33328269477755Z " fill="#ffff" transform="matrix(1.3235295068021533,0,0,1.3235295068021533,0,-75.0000144808369)"/><path d="M661.1110885938027 283.3332941790843L661.1110885938027 283.3332941790843Q661.1110885938027 314.30551311937216 639.0277576005034 336.24995523849987Q617.0833154813757 358.3332862317992 586.1110965410879 358.3332862317992L586.1110965410879 358.3332862317992Q554.9999887266284 358.3332862317992 533.0555466075007 336.24995523849987Q511.1111044883731 314.30551311937216 511.1111044883731 283.3332941790843L511.1111044883731 283.3332941790843Q511.1111044883731 252.2221863646248 533.0555466075007 230.27774424549716Q554.9999887266284 208.33330212636946 586.1110965410879 208.33330212636946L586.1110965410879 208.33330212636946Q617.0833154813757 208.33330212636946 639.0277576005034 230.27774424549716Q661.1110885938027 252.2221863646248 661.1110885938027 283.3332941790843Z " fill="#0000" transform="matrix(1.3235295068021533,0,0,1.3235295068021533,0,-75.0000144808369)"/></g></svg>